<mxfile host="Electron" modified="2024-09-25T16:46:36.868Z" agent="Mozilla/5.0 (Windows NT 10.0; Win64; x64) AppleWebKit/537.36 (KHTML, like Gecko) draw.io/22.1.2 Chrome/114.0.5735.289 Electron/25.9.4 Safari/537.36" etag="FghD4z6KHQvLdxjhZRVS" version="22.1.2" type="device">
  <diagram id="C5RBs43oDa-KdzZeNtuy" name="Page-1">
    <mxGraphModel dx="3595" dy="656" grid="1" gridSize="10" guides="1" tooltips="1" connect="1" arrows="1" fold="1" page="1" pageScale="1" pageWidth="827" pageHeight="1169" math="0" shadow="0">
      <root>
        <mxCell id="WIyWlLk6GJQsqaUBKTNV-0" />
        <mxCell id="WIyWlLk6GJQsqaUBKTNV-1" parent="WIyWlLk6GJQsqaUBKTNV-0" />
        <mxCell id="0gDvJllcKNRSjOe3t4Q_-36" value="" style="edgeStyle=orthogonalEdgeStyle;rounded=0;orthogonalLoop=1;jettySize=auto;html=1;" parent="WIyWlLk6GJQsqaUBKTNV-1" source="0gDvJllcKNRSjOe3t4Q_-1" target="0gDvJllcKNRSjOe3t4Q_-35" edge="1">
          <mxGeometry relative="1" as="geometry" />
        </mxCell>
        <mxCell id="0gDvJllcKNRSjOe3t4Q_-38" value="" style="edgeStyle=orthogonalEdgeStyle;rounded=0;orthogonalLoop=1;jettySize=auto;html=1;" parent="WIyWlLk6GJQsqaUBKTNV-1" source="0gDvJllcKNRSjOe3t4Q_-1" target="0gDvJllcKNRSjOe3t4Q_-37" edge="1">
          <mxGeometry relative="1" as="geometry" />
        </mxCell>
        <mxCell id="0gDvJllcKNRSjOe3t4Q_-43" value="" style="edgeStyle=orthogonalEdgeStyle;rounded=0;orthogonalLoop=1;jettySize=auto;html=1;" parent="WIyWlLk6GJQsqaUBKTNV-1" source="0gDvJllcKNRSjOe3t4Q_-1" target="0gDvJllcKNRSjOe3t4Q_-42" edge="1">
          <mxGeometry relative="1" as="geometry" />
        </mxCell>
        <mxCell id="0gDvJllcKNRSjOe3t4Q_-1" value="Start" style="ellipse;whiteSpace=wrap;html=1;" parent="WIyWlLk6GJQsqaUBKTNV-1" vertex="1">
          <mxGeometry x="354" y="160" width="120" height="80" as="geometry" />
        </mxCell>
        <mxCell id="0gDvJllcKNRSjOe3t4Q_-28" style="edgeStyle=orthogonalEdgeStyle;rounded=0;orthogonalLoop=1;jettySize=auto;html=1;" parent="WIyWlLk6GJQsqaUBKTNV-1" source="0gDvJllcKNRSjOe3t4Q_-11" target="0gDvJllcKNRSjOe3t4Q_-24" edge="1">
          <mxGeometry relative="1" as="geometry">
            <Array as="points">
              <mxPoint x="414" y="550" />
              <mxPoint x="2089" y="550" />
            </Array>
          </mxGeometry>
        </mxCell>
        <mxCell id="0gDvJllcKNRSjOe3t4Q_-81" style="edgeStyle=orthogonalEdgeStyle;rounded=0;orthogonalLoop=1;jettySize=auto;html=1;entryX=0.5;entryY=1;entryDx=0;entryDy=0;" parent="WIyWlLk6GJQsqaUBKTNV-1" source="0gDvJllcKNRSjOe3t4Q_-11" target="0gDvJllcKNRSjOe3t4Q_-82" edge="1">
          <mxGeometry relative="1" as="geometry">
            <mxPoint x="790" y="330" as="targetPoint" />
          </mxGeometry>
        </mxCell>
        <mxCell id="EXjrsL-Il8gmp6x8w_7C-25" style="edgeStyle=orthogonalEdgeStyle;rounded=0;orthogonalLoop=1;jettySize=auto;html=1;entryX=0.5;entryY=0;entryDx=0;entryDy=0;" edge="1" parent="WIyWlLk6GJQsqaUBKTNV-1" source="0gDvJllcKNRSjOe3t4Q_-11" target="EXjrsL-Il8gmp6x8w_7C-4">
          <mxGeometry relative="1" as="geometry">
            <Array as="points">
              <mxPoint x="414" y="730" />
              <mxPoint x="38" y="730" />
            </Array>
          </mxGeometry>
        </mxCell>
        <mxCell id="EXjrsL-Il8gmp6x8w_7C-49" style="edgeStyle=orthogonalEdgeStyle;rounded=0;orthogonalLoop=1;jettySize=auto;html=1;entryX=0.5;entryY=0;entryDx=0;entryDy=0;" edge="1" parent="WIyWlLk6GJQsqaUBKTNV-1" source="0gDvJllcKNRSjOe3t4Q_-11" target="EXjrsL-Il8gmp6x8w_7C-28">
          <mxGeometry relative="1" as="geometry">
            <Array as="points">
              <mxPoint x="414" y="860" />
              <mxPoint x="1331" y="860" />
            </Array>
          </mxGeometry>
        </mxCell>
        <mxCell id="EXjrsL-Il8gmp6x8w_7C-73" style="edgeStyle=orthogonalEdgeStyle;rounded=0;orthogonalLoop=1;jettySize=auto;html=1;entryX=0.5;entryY=0;entryDx=0;entryDy=0;" edge="1" parent="WIyWlLk6GJQsqaUBKTNV-1" source="0gDvJllcKNRSjOe3t4Q_-11" target="EXjrsL-Il8gmp6x8w_7C-52">
          <mxGeometry relative="1" as="geometry">
            <Array as="points">
              <mxPoint x="414" y="720" />
              <mxPoint x="-912" y="720" />
            </Array>
          </mxGeometry>
        </mxCell>
        <mxCell id="EXjrsL-Il8gmp6x8w_7C-97" style="edgeStyle=orthogonalEdgeStyle;rounded=0;orthogonalLoop=1;jettySize=auto;html=1;entryX=0.5;entryY=0;entryDx=0;entryDy=0;" edge="1" parent="WIyWlLk6GJQsqaUBKTNV-1" source="0gDvJllcKNRSjOe3t4Q_-11" target="EXjrsL-Il8gmp6x8w_7C-76">
          <mxGeometry relative="1" as="geometry">
            <Array as="points">
              <mxPoint x="980" y="465" />
              <mxPoint x="980" y="1230" />
              <mxPoint x="3088" y="1230" />
            </Array>
          </mxGeometry>
        </mxCell>
        <mxCell id="0gDvJllcKNRSjOe3t4Q_-11" value="" style="ellipse;whiteSpace=wrap;html=1;aspect=fixed;" parent="WIyWlLk6GJQsqaUBKTNV-1" vertex="1">
          <mxGeometry x="389" y="440" width="50" height="50" as="geometry" />
        </mxCell>
        <mxCell id="0gDvJllcKNRSjOe3t4Q_-52" value="" style="edgeStyle=orthogonalEdgeStyle;rounded=0;orthogonalLoop=1;jettySize=auto;html=1;" parent="WIyWlLk6GJQsqaUBKTNV-1" source="0gDvJllcKNRSjOe3t4Q_-24" target="0gDvJllcKNRSjOe3t4Q_-51" edge="1">
          <mxGeometry relative="1" as="geometry">
            <Array as="points">
              <mxPoint x="2517" y="620" />
            </Array>
          </mxGeometry>
        </mxCell>
        <mxCell id="0gDvJllcKNRSjOe3t4Q_-90" style="edgeStyle=orthogonalEdgeStyle;rounded=0;orthogonalLoop=1;jettySize=auto;html=1;" parent="WIyWlLk6GJQsqaUBKTNV-1" source="0gDvJllcKNRSjOe3t4Q_-24" target="0gDvJllcKNRSjOe3t4Q_-85" edge="1">
          <mxGeometry relative="1" as="geometry">
            <Array as="points">
              <mxPoint x="2220" y="620" />
              <mxPoint x="2220" y="680" />
              <mxPoint x="1756" y="680" />
            </Array>
          </mxGeometry>
        </mxCell>
        <mxCell id="0gDvJllcKNRSjOe3t4Q_-24" value="Se Lugar===&quot;Norte Do Brasil&quot;" style="rhombus;whiteSpace=wrap;html=1;align=center;" parent="WIyWlLk6GJQsqaUBKTNV-1" vertex="1">
          <mxGeometry x="1990" y="570" width="198" height="100" as="geometry" />
        </mxCell>
        <mxCell id="0gDvJllcKNRSjOe3t4Q_-46" style="edgeStyle=orthogonalEdgeStyle;rounded=0;orthogonalLoop=1;jettySize=auto;html=1;entryX=0.5;entryY=0;entryDx=0;entryDy=0;" parent="WIyWlLk6GJQsqaUBKTNV-1" source="0gDvJllcKNRSjOe3t4Q_-35" target="0gDvJllcKNRSjOe3t4Q_-11" edge="1">
          <mxGeometry relative="1" as="geometry" />
        </mxCell>
        <mxCell id="0gDvJllcKNRSjOe3t4Q_-35" value="Lugar= &quot;Norte&lt;br&gt;do Brasil&quot;" style="shape=parallelogram;perimeter=parallelogramPerimeter;whiteSpace=wrap;html=1;fixedSize=1;" parent="WIyWlLk6GJQsqaUBKTNV-1" vertex="1">
          <mxGeometry x="354" y="260" width="120" height="60" as="geometry" />
        </mxCell>
        <mxCell id="0gDvJllcKNRSjOe3t4Q_-47" style="edgeStyle=orthogonalEdgeStyle;rounded=0;orthogonalLoop=1;jettySize=auto;html=1;entryX=1;entryY=0.5;entryDx=0;entryDy=0;" parent="WIyWlLk6GJQsqaUBKTNV-1" source="0gDvJllcKNRSjOe3t4Q_-37" target="0gDvJllcKNRSjOe3t4Q_-11" edge="1">
          <mxGeometry relative="1" as="geometry">
            <mxPoint x="460" y="470" as="targetPoint" />
            <Array as="points">
              <mxPoint x="575" y="465" />
            </Array>
          </mxGeometry>
        </mxCell>
        <mxCell id="0gDvJllcKNRSjOe3t4Q_-37" value="EstadoAdulto= &quot;Economica&quot;&lt;br&gt;EstadoCrianca= &quot;Executiva&quot;" style="shape=parallelogram;perimeter=parallelogramPerimeter;whiteSpace=wrap;html=1;fixedSize=1;" parent="WIyWlLk6GJQsqaUBKTNV-1" vertex="1">
          <mxGeometry x="500" y="260" width="190" height="60" as="geometry" />
        </mxCell>
        <mxCell id="0gDvJllcKNRSjOe3t4Q_-48" style="edgeStyle=orthogonalEdgeStyle;rounded=0;orthogonalLoop=1;jettySize=auto;html=1;entryX=0;entryY=0.5;entryDx=0;entryDy=0;" parent="WIyWlLk6GJQsqaUBKTNV-1" source="0gDvJllcKNRSjOe3t4Q_-42" target="0gDvJllcKNRSjOe3t4Q_-11" edge="1">
          <mxGeometry relative="1" as="geometry">
            <Array as="points">
              <mxPoint x="260" y="465" />
            </Array>
          </mxGeometry>
        </mxCell>
        <mxCell id="0gDvJllcKNRSjOe3t4Q_-42" value="QtdAdulto= 1&lt;br&gt;QtdCrianca= 1" style="shape=parallelogram;perimeter=parallelogramPerimeter;whiteSpace=wrap;html=1;fixedSize=1;" parent="WIyWlLk6GJQsqaUBKTNV-1" vertex="1">
          <mxGeometry x="200" y="250" width="120" height="70" as="geometry" />
        </mxCell>
        <mxCell id="0gDvJllcKNRSjOe3t4Q_-67" style="edgeStyle=orthogonalEdgeStyle;rounded=0;orthogonalLoop=1;jettySize=auto;html=1;entryX=0.5;entryY=0;entryDx=0;entryDy=0;" parent="WIyWlLk6GJQsqaUBKTNV-1" source="0gDvJllcKNRSjOe3t4Q_-51" target="0gDvJllcKNRSjOe3t4Q_-54" edge="1">
          <mxGeometry relative="1" as="geometry" />
        </mxCell>
        <mxCell id="0gDvJllcKNRSjOe3t4Q_-93" style="edgeStyle=orthogonalEdgeStyle;rounded=0;orthogonalLoop=1;jettySize=auto;html=1;exitX=0.5;exitY=1;exitDx=0;exitDy=0;" parent="WIyWlLk6GJQsqaUBKTNV-1" source="0gDvJllcKNRSjOe3t4Q_-57" target="0gDvJllcKNRSjOe3t4Q_-92" edge="1">
          <mxGeometry relative="1" as="geometry">
            <Array as="points">
              <mxPoint x="2520" y="1010" />
              <mxPoint x="2520" y="1090" />
            </Array>
          </mxGeometry>
        </mxCell>
        <mxCell id="0gDvJllcKNRSjOe3t4Q_-51" value="Valoradultonorte;&lt;br&gt;Valorcriancanorte;" style="shape=parallelogram;perimeter=parallelogramPerimeter;whiteSpace=wrap;html=1;fixedSize=1;" parent="WIyWlLk6GJQsqaUBKTNV-1" vertex="1">
          <mxGeometry x="2446.5" y="730" width="141" height="60" as="geometry" />
        </mxCell>
        <mxCell id="0gDvJllcKNRSjOe3t4Q_-58" value="" style="edgeStyle=orthogonalEdgeStyle;rounded=0;orthogonalLoop=1;jettySize=auto;html=1;entryX=0.5;entryY=0;entryDx=0;entryDy=0;" parent="WIyWlLk6GJQsqaUBKTNV-1" source="0gDvJllcKNRSjOe3t4Q_-54" target="0gDvJllcKNRSjOe3t4Q_-57" edge="1">
          <mxGeometry relative="1" as="geometry" />
        </mxCell>
        <mxCell id="0gDvJllcKNRSjOe3t4Q_-78" style="edgeStyle=orthogonalEdgeStyle;rounded=0;orthogonalLoop=1;jettySize=auto;html=1;" parent="WIyWlLk6GJQsqaUBKTNV-1" source="0gDvJllcKNRSjOe3t4Q_-54" edge="1">
          <mxGeometry relative="1" as="geometry">
            <mxPoint x="2350" y="880" as="targetPoint" />
          </mxGeometry>
        </mxCell>
        <mxCell id="0gDvJllcKNRSjOe3t4Q_-54" value="Se QtdCriança&amp;gt;0" style="rhombus;whiteSpace=wrap;html=1;" parent="WIyWlLk6GJQsqaUBKTNV-1" vertex="1">
          <mxGeometry x="2451" y="840" width="132" height="80" as="geometry" />
        </mxCell>
        <mxCell id="0gDvJllcKNRSjOe3t4Q_-69" value="" style="edgeStyle=orthogonalEdgeStyle;rounded=0;orthogonalLoop=1;jettySize=auto;html=1;" parent="WIyWlLk6GJQsqaUBKTNV-1" source="0gDvJllcKNRSjOe3t4Q_-57" target="0gDvJllcKNRSjOe3t4Q_-68" edge="1">
          <mxGeometry relative="1" as="geometry" />
        </mxCell>
        <mxCell id="0gDvJllcKNRSjOe3t4Q_-73" value="" style="edgeStyle=orthogonalEdgeStyle;rounded=0;orthogonalLoop=1;jettySize=auto;html=1;" parent="WIyWlLk6GJQsqaUBKTNV-1" source="0gDvJllcKNRSjOe3t4Q_-57" target="0gDvJllcKNRSjOe3t4Q_-72" edge="1">
          <mxGeometry relative="1" as="geometry" />
        </mxCell>
        <mxCell id="0gDvJllcKNRSjOe3t4Q_-57" value="Se EstadoCrianca===&quot;Econômico&quot;" style="rhombus;whiteSpace=wrap;html=1;" parent="WIyWlLk6GJQsqaUBKTNV-1" vertex="1">
          <mxGeometry x="2630" y="930" width="256" height="80" as="geometry" />
        </mxCell>
        <mxCell id="0gDvJllcKNRSjOe3t4Q_-62" style="edgeStyle=orthogonalEdgeStyle;rounded=0;orthogonalLoop=1;jettySize=auto;html=1;entryX=0;entryY=1;entryDx=0;entryDy=0;" parent="WIyWlLk6GJQsqaUBKTNV-1" source="0gDvJllcKNRSjOe3t4Q_-59" target="0gDvJllcKNRSjOe3t4Q_-11" edge="1">
          <mxGeometry relative="1" as="geometry">
            <mxPoint x="360" y="500" as="targetPoint" />
            <Array as="points">
              <mxPoint x="-15" y="590" />
              <mxPoint x="245" y="590" />
              <mxPoint x="245" y="501" />
              <mxPoint x="396" y="501" />
            </Array>
          </mxGeometry>
        </mxCell>
        <mxCell id="0gDvJllcKNRSjOe3t4Q_-59" value="&amp;nbsp;Adultoeconorte= 1200&lt;br style=&quot;text-align: left;&quot;&gt;&lt;span style=&quot;text-align: left;&quot;&gt;&amp;nbsp; &amp;nbsp; Adultoexecunorte= 2500*1.2&lt;/span&gt;&lt;br style=&quot;text-align: left;&quot;&gt;&lt;span style=&quot;text-align: left;&quot;&gt;&amp;nbsp; &amp;nbsp;Criancaeconorte= 900,00&lt;/span&gt;&lt;br style=&quot;text-align: left;&quot;&gt;&lt;span style=&quot;text-align: left;&quot;&gt;&amp;nbsp; Criancaexecunorte= 2200*1.1&lt;/span&gt;&lt;br style=&quot;text-align: left;&quot;&gt;&lt;br style=&quot;text-align: left;&quot;&gt;&lt;span style=&quot;text-align: left;&quot;&gt;&amp;nbsp;&lt;br&gt;Adultoecriancaecosul= 2200&lt;/span&gt;&lt;br style=&quot;text-align: left;&quot;&gt;&lt;span style=&quot;text-align: left;&quot;&gt;Adutoecriancaexecusul= 3400&lt;/span&gt;&lt;br style=&quot;text-align: left;&quot;&gt;&lt;br style=&quot;text-align: left;&quot;&gt;&lt;span style=&quot;text-align: left;&quot;&gt;Asiaeco= 3600&lt;/span&gt;&lt;br style=&quot;text-align: left;&quot;&gt;&lt;span style=&quot;text-align: left;&quot;&gt;&amp;nbsp;Asiaexecu= 5000&lt;/span&gt;&lt;br style=&quot;text-align: left;&quot;&gt;&lt;span style=&quot;text-align: left;&quot;&gt;&amp;nbsp; &amp;nbsp; &amp;nbsp;&amp;nbsp;&lt;/span&gt;&lt;br style=&quot;text-align: left;&quot;&gt;&lt;span style=&quot;text-align: left;&quot;&gt;&amp;nbsp; Europaeco= 5800&lt;/span&gt;&lt;br style=&quot;text-align: left;&quot;&gt;&lt;span style=&quot;text-align: left;&quot;&gt;&amp;nbsp; &amp;nbsp;Europaexecu= 7300&lt;/span&gt;&lt;br style=&quot;text-align: left;&quot;&gt;&lt;span style=&quot;text-align: left;&quot;&gt;&amp;nbsp; &amp;nbsp; &amp;nbsp;&lt;/span&gt;&lt;br style=&quot;text-align: left;&quot;&gt;&lt;span style=&quot;text-align: left;&quot;&gt;&amp;nbsp; &amp;nbsp; &amp;nbsp;Africaeco= 2200&lt;/span&gt;&lt;br style=&quot;text-align: left;&quot;&gt;&lt;span style=&quot;text-align: left;&quot;&gt;&amp;nbsp; &amp;nbsp; &amp;nbsp; Africaexecu= 3900&lt;/span&gt;" style="shape=parallelogram;perimeter=parallelogramPerimeter;whiteSpace=wrap;html=1;fixedSize=1;" parent="WIyWlLk6GJQsqaUBKTNV-1" vertex="1">
          <mxGeometry x="-160" y="280" width="290" height="290" as="geometry" />
        </mxCell>
        <mxCell id="0gDvJllcKNRSjOe3t4Q_-61" style="edgeStyle=orthogonalEdgeStyle;rounded=0;orthogonalLoop=1;jettySize=auto;html=1;entryX=0.583;entryY=0.017;entryDx=0;entryDy=0;entryPerimeter=0;" parent="WIyWlLk6GJQsqaUBKTNV-1" source="0gDvJllcKNRSjOe3t4Q_-1" target="0gDvJllcKNRSjOe3t4Q_-59" edge="1">
          <mxGeometry relative="1" as="geometry">
            <Array as="points">
              <mxPoint x="9" y="200" />
            </Array>
          </mxGeometry>
        </mxCell>
        <mxCell id="0gDvJllcKNRSjOe3t4Q_-68" value="Valorcriancanorte=Qtdcrianca*Criancaeconorte" style="shape=parallelogram;perimeter=parallelogramPerimeter;whiteSpace=wrap;html=1;fixedSize=1;" parent="WIyWlLk6GJQsqaUBKTNV-1" vertex="1">
          <mxGeometry x="2940" y="940" width="300" height="60" as="geometry" />
        </mxCell>
        <mxCell id="0gDvJllcKNRSjOe3t4Q_-72" value="Valorcriancanorte=Qtdcrianca*Criancaexecunorte" style="shape=parallelogram;perimeter=parallelogramPerimeter;whiteSpace=wrap;html=1;fixedSize=1;" parent="WIyWlLk6GJQsqaUBKTNV-1" vertex="1">
          <mxGeometry x="2170" y="940" width="312" height="60" as="geometry" />
        </mxCell>
        <mxCell id="0gDvJllcKNRSjOe3t4Q_-77" value="Valoradultonorte,&lt;br&gt;Qtdpessoas,&lt;br&gt;Lugar" style="shape=display;whiteSpace=wrap;html=1;" parent="WIyWlLk6GJQsqaUBKTNV-1" vertex="1">
          <mxGeometry x="2180" y="847.5" width="168.5" height="65" as="geometry" />
        </mxCell>
        <mxCell id="0gDvJllcKNRSjOe3t4Q_-82" value="Qtdpessoas= Qtdadulto+Qtdcrianca&amp;nbsp;" style="shape=parallelogram;perimeter=parallelogramPerimeter;whiteSpace=wrap;html=1;fixedSize=1;" parent="WIyWlLk6GJQsqaUBKTNV-1" vertex="1">
          <mxGeometry x="740" y="240" width="160" height="80" as="geometry" />
        </mxCell>
        <mxCell id="0gDvJllcKNRSjOe3t4Q_-87" value="" style="edgeStyle=orthogonalEdgeStyle;rounded=0;orthogonalLoop=1;jettySize=auto;html=1;" parent="WIyWlLk6GJQsqaUBKTNV-1" source="0gDvJllcKNRSjOe3t4Q_-85" target="0gDvJllcKNRSjOe3t4Q_-86" edge="1">
          <mxGeometry relative="1" as="geometry" />
        </mxCell>
        <mxCell id="0gDvJllcKNRSjOe3t4Q_-89" value="" style="edgeStyle=orthogonalEdgeStyle;rounded=0;orthogonalLoop=1;jettySize=auto;html=1;" parent="WIyWlLk6GJQsqaUBKTNV-1" source="0gDvJllcKNRSjOe3t4Q_-85" target="0gDvJllcKNRSjOe3t4Q_-88" edge="1">
          <mxGeometry relative="1" as="geometry" />
        </mxCell>
        <mxCell id="0gDvJllcKNRSjOe3t4Q_-85" value="Se EstadoAdulto===Economica" style="rhombus;whiteSpace=wrap;html=1;" parent="WIyWlLk6GJQsqaUBKTNV-1" vertex="1">
          <mxGeometry x="1631" y="700" width="250" height="100" as="geometry" />
        </mxCell>
        <mxCell id="0gDvJllcKNRSjOe3t4Q_-86" value="Valoradultonorte=Qtdadulto*Adultoeconorte" style="shape=parallelogram;perimeter=parallelogramPerimeter;whiteSpace=wrap;html=1;fixedSize=1;" parent="WIyWlLk6GJQsqaUBKTNV-1" vertex="1">
          <mxGeometry x="1911" y="720" width="270" height="60" as="geometry" />
        </mxCell>
        <mxCell id="0gDvJllcKNRSjOe3t4Q_-88" value="Valoradultonorte=Qtdadulto*Adultoexecunorte" style="shape=parallelogram;perimeter=parallelogramPerimeter;whiteSpace=wrap;html=1;fixedSize=1;" parent="WIyWlLk6GJQsqaUBKTNV-1" vertex="1">
          <mxGeometry x="1241" y="720" width="295" height="60" as="geometry" />
        </mxCell>
        <mxCell id="EXjrsL-Il8gmp6x8w_7C-0" style="edgeStyle=orthogonalEdgeStyle;rounded=0;orthogonalLoop=1;jettySize=auto;html=1;entryX=1;entryY=0.5;entryDx=0;entryDy=0;entryPerimeter=0;" edge="1" parent="WIyWlLk6GJQsqaUBKTNV-1" source="0gDvJllcKNRSjOe3t4Q_-92" target="EXjrsL-Il8gmp6x8w_7C-1">
          <mxGeometry relative="1" as="geometry">
            <mxPoint x="1990" y="1085" as="targetPoint" />
          </mxGeometry>
        </mxCell>
        <mxCell id="0gDvJllcKNRSjOe3t4Q_-92" value="Valortotal=Valoradultonorte+Valorcriancanorte" style="shape=parallelogram;perimeter=parallelogramPerimeter;whiteSpace=wrap;html=1;fixedSize=1;" parent="WIyWlLk6GJQsqaUBKTNV-1" vertex="1">
          <mxGeometry x="2080" y="1060" width="300" height="50" as="geometry" />
        </mxCell>
        <mxCell id="EXjrsL-Il8gmp6x8w_7C-1" value="Valortotal,&lt;br&gt;Qtdpessoas,&lt;br&gt;Lugar" style="shape=display;whiteSpace=wrap;html=1;" vertex="1" parent="WIyWlLk6GJQsqaUBKTNV-1">
          <mxGeometry x="1840" y="1052.5" width="140" height="65" as="geometry" />
        </mxCell>
        <mxCell id="EXjrsL-Il8gmp6x8w_7C-2" value="" style="edgeStyle=orthogonalEdgeStyle;rounded=0;orthogonalLoop=1;jettySize=auto;html=1;" edge="1" parent="WIyWlLk6GJQsqaUBKTNV-1" source="EXjrsL-Il8gmp6x8w_7C-4" target="EXjrsL-Il8gmp6x8w_7C-7">
          <mxGeometry relative="1" as="geometry">
            <Array as="points">
              <mxPoint x="466" y="990" />
            </Array>
          </mxGeometry>
        </mxCell>
        <mxCell id="EXjrsL-Il8gmp6x8w_7C-3" style="edgeStyle=orthogonalEdgeStyle;rounded=0;orthogonalLoop=1;jettySize=auto;html=1;" edge="1" parent="WIyWlLk6GJQsqaUBKTNV-1" source="EXjrsL-Il8gmp6x8w_7C-4" target="EXjrsL-Il8gmp6x8w_7C-19">
          <mxGeometry relative="1" as="geometry">
            <Array as="points">
              <mxPoint x="169" y="990" />
              <mxPoint x="169" y="1050" />
              <mxPoint x="-295" y="1050" />
            </Array>
          </mxGeometry>
        </mxCell>
        <mxCell id="EXjrsL-Il8gmp6x8w_7C-4" value="Se Lugar===&quot;Sul Do Brasil&quot;" style="rhombus;whiteSpace=wrap;html=1;align=center;" vertex="1" parent="WIyWlLk6GJQsqaUBKTNV-1">
          <mxGeometry x="-61" y="940" width="198" height="100" as="geometry" />
        </mxCell>
        <mxCell id="EXjrsL-Il8gmp6x8w_7C-5" style="edgeStyle=orthogonalEdgeStyle;rounded=0;orthogonalLoop=1;jettySize=auto;html=1;entryX=0.5;entryY=0;entryDx=0;entryDy=0;" edge="1" parent="WIyWlLk6GJQsqaUBKTNV-1" source="EXjrsL-Il8gmp6x8w_7C-7" target="EXjrsL-Il8gmp6x8w_7C-10">
          <mxGeometry relative="1" as="geometry" />
        </mxCell>
        <mxCell id="EXjrsL-Il8gmp6x8w_7C-6" style="edgeStyle=orthogonalEdgeStyle;rounded=0;orthogonalLoop=1;jettySize=auto;html=1;exitX=0.5;exitY=1;exitDx=0;exitDy=0;" edge="1" parent="WIyWlLk6GJQsqaUBKTNV-1" source="EXjrsL-Il8gmp6x8w_7C-13" target="EXjrsL-Il8gmp6x8w_7C-23">
          <mxGeometry relative="1" as="geometry">
            <Array as="points">
              <mxPoint x="469" y="1380" />
              <mxPoint x="469" y="1460" />
            </Array>
          </mxGeometry>
        </mxCell>
        <mxCell id="EXjrsL-Il8gmp6x8w_7C-7" value="Valoradultosul;&lt;br&gt;Valorcriancasul;" style="shape=parallelogram;perimeter=parallelogramPerimeter;whiteSpace=wrap;html=1;fixedSize=1;" vertex="1" parent="WIyWlLk6GJQsqaUBKTNV-1">
          <mxGeometry x="395.5" y="1100" width="141" height="60" as="geometry" />
        </mxCell>
        <mxCell id="EXjrsL-Il8gmp6x8w_7C-8" value="" style="edgeStyle=orthogonalEdgeStyle;rounded=0;orthogonalLoop=1;jettySize=auto;html=1;entryX=0.5;entryY=0;entryDx=0;entryDy=0;" edge="1" parent="WIyWlLk6GJQsqaUBKTNV-1" source="EXjrsL-Il8gmp6x8w_7C-10" target="EXjrsL-Il8gmp6x8w_7C-13">
          <mxGeometry relative="1" as="geometry" />
        </mxCell>
        <mxCell id="EXjrsL-Il8gmp6x8w_7C-9" style="edgeStyle=orthogonalEdgeStyle;rounded=0;orthogonalLoop=1;jettySize=auto;html=1;" edge="1" parent="WIyWlLk6GJQsqaUBKTNV-1" source="EXjrsL-Il8gmp6x8w_7C-10">
          <mxGeometry relative="1" as="geometry">
            <mxPoint x="299" y="1250" as="targetPoint" />
          </mxGeometry>
        </mxCell>
        <mxCell id="EXjrsL-Il8gmp6x8w_7C-10" value="Se QtdCriança&amp;gt;0" style="rhombus;whiteSpace=wrap;html=1;" vertex="1" parent="WIyWlLk6GJQsqaUBKTNV-1">
          <mxGeometry x="400" y="1210" width="132" height="80" as="geometry" />
        </mxCell>
        <mxCell id="EXjrsL-Il8gmp6x8w_7C-11" value="" style="edgeStyle=orthogonalEdgeStyle;rounded=0;orthogonalLoop=1;jettySize=auto;html=1;" edge="1" parent="WIyWlLk6GJQsqaUBKTNV-1" source="EXjrsL-Il8gmp6x8w_7C-13" target="EXjrsL-Il8gmp6x8w_7C-14">
          <mxGeometry relative="1" as="geometry" />
        </mxCell>
        <mxCell id="EXjrsL-Il8gmp6x8w_7C-12" value="" style="edgeStyle=orthogonalEdgeStyle;rounded=0;orthogonalLoop=1;jettySize=auto;html=1;" edge="1" parent="WIyWlLk6GJQsqaUBKTNV-1" source="EXjrsL-Il8gmp6x8w_7C-13" target="EXjrsL-Il8gmp6x8w_7C-15">
          <mxGeometry relative="1" as="geometry" />
        </mxCell>
        <mxCell id="EXjrsL-Il8gmp6x8w_7C-13" value="Se EstadoCrianca===&quot;Econômico&quot;" style="rhombus;whiteSpace=wrap;html=1;" vertex="1" parent="WIyWlLk6GJQsqaUBKTNV-1">
          <mxGeometry x="579" y="1300" width="256" height="80" as="geometry" />
        </mxCell>
        <mxCell id="EXjrsL-Il8gmp6x8w_7C-14" value="Valorcriancasul=Qtdcrianca*Adultoecriancasul" style="shape=parallelogram;perimeter=parallelogramPerimeter;whiteSpace=wrap;html=1;fixedSize=1;" vertex="1" parent="WIyWlLk6GJQsqaUBKTNV-1">
          <mxGeometry x="889" y="1310" width="300" height="60" as="geometry" />
        </mxCell>
        <mxCell id="EXjrsL-Il8gmp6x8w_7C-15" value="Valorcriancasul=Qtdcrianca*adultoecriancasul" style="shape=parallelogram;perimeter=parallelogramPerimeter;whiteSpace=wrap;html=1;fixedSize=1;" vertex="1" parent="WIyWlLk6GJQsqaUBKTNV-1">
          <mxGeometry x="119" y="1310" width="312" height="60" as="geometry" />
        </mxCell>
        <mxCell id="EXjrsL-Il8gmp6x8w_7C-16" value="Valoradultosul,&lt;br&gt;Qtdpessoas,&lt;br&gt;Lugar" style="shape=display;whiteSpace=wrap;html=1;" vertex="1" parent="WIyWlLk6GJQsqaUBKTNV-1">
          <mxGeometry x="129" y="1217.5" width="168.5" height="65" as="geometry" />
        </mxCell>
        <mxCell id="EXjrsL-Il8gmp6x8w_7C-17" value="" style="edgeStyle=orthogonalEdgeStyle;rounded=0;orthogonalLoop=1;jettySize=auto;html=1;" edge="1" parent="WIyWlLk6GJQsqaUBKTNV-1" source="EXjrsL-Il8gmp6x8w_7C-19" target="EXjrsL-Il8gmp6x8w_7C-20">
          <mxGeometry relative="1" as="geometry" />
        </mxCell>
        <mxCell id="EXjrsL-Il8gmp6x8w_7C-18" value="" style="edgeStyle=orthogonalEdgeStyle;rounded=0;orthogonalLoop=1;jettySize=auto;html=1;" edge="1" parent="WIyWlLk6GJQsqaUBKTNV-1" source="EXjrsL-Il8gmp6x8w_7C-19" target="EXjrsL-Il8gmp6x8w_7C-21">
          <mxGeometry relative="1" as="geometry" />
        </mxCell>
        <mxCell id="EXjrsL-Il8gmp6x8w_7C-19" value="Se EstadoAdulto===Economica" style="rhombus;whiteSpace=wrap;html=1;" vertex="1" parent="WIyWlLk6GJQsqaUBKTNV-1">
          <mxGeometry x="-420" y="1070" width="250" height="100" as="geometry" />
        </mxCell>
        <mxCell id="EXjrsL-Il8gmp6x8w_7C-20" value="Valoradultosul=Qtdadulto*Adultoecriancacosul" style="shape=parallelogram;perimeter=parallelogramPerimeter;whiteSpace=wrap;html=1;fixedSize=1;" vertex="1" parent="WIyWlLk6GJQsqaUBKTNV-1">
          <mxGeometry x="-140" y="1090" width="290" height="60" as="geometry" />
        </mxCell>
        <mxCell id="EXjrsL-Il8gmp6x8w_7C-21" value="Valoradultosul=Qtdadulto*Adultoecriancaexecusul" style="shape=parallelogram;perimeter=parallelogramPerimeter;whiteSpace=wrap;html=1;fixedSize=1;" vertex="1" parent="WIyWlLk6GJQsqaUBKTNV-1">
          <mxGeometry x="-810" y="1090" width="320" height="60" as="geometry" />
        </mxCell>
        <mxCell id="EXjrsL-Il8gmp6x8w_7C-22" style="edgeStyle=orthogonalEdgeStyle;rounded=0;orthogonalLoop=1;jettySize=auto;html=1;entryX=1;entryY=0.5;entryDx=0;entryDy=0;entryPerimeter=0;" edge="1" parent="WIyWlLk6GJQsqaUBKTNV-1" source="EXjrsL-Il8gmp6x8w_7C-23" target="EXjrsL-Il8gmp6x8w_7C-24">
          <mxGeometry relative="1" as="geometry">
            <mxPoint x="-61" y="1455" as="targetPoint" />
          </mxGeometry>
        </mxCell>
        <mxCell id="EXjrsL-Il8gmp6x8w_7C-23" value="Valortotal=Valorcriancasul+Valoradultosul" style="shape=parallelogram;perimeter=parallelogramPerimeter;whiteSpace=wrap;html=1;fixedSize=1;" vertex="1" parent="WIyWlLk6GJQsqaUBKTNV-1">
          <mxGeometry x="29" y="1430" width="300" height="50" as="geometry" />
        </mxCell>
        <mxCell id="EXjrsL-Il8gmp6x8w_7C-24" value="Valortotal,&lt;br&gt;Qtdpessoas,&lt;br&gt;Lugar" style="shape=display;whiteSpace=wrap;html=1;" vertex="1" parent="WIyWlLk6GJQsqaUBKTNV-1">
          <mxGeometry x="-211" y="1422.5" width="140" height="65" as="geometry" />
        </mxCell>
        <mxCell id="EXjrsL-Il8gmp6x8w_7C-26" value="" style="edgeStyle=orthogonalEdgeStyle;rounded=0;orthogonalLoop=1;jettySize=auto;html=1;" edge="1" parent="WIyWlLk6GJQsqaUBKTNV-1" source="EXjrsL-Il8gmp6x8w_7C-28" target="EXjrsL-Il8gmp6x8w_7C-31">
          <mxGeometry relative="1" as="geometry">
            <Array as="points">
              <mxPoint x="1759" y="1650" />
            </Array>
          </mxGeometry>
        </mxCell>
        <mxCell id="EXjrsL-Il8gmp6x8w_7C-27" style="edgeStyle=orthogonalEdgeStyle;rounded=0;orthogonalLoop=1;jettySize=auto;html=1;" edge="1" parent="WIyWlLk6GJQsqaUBKTNV-1" source="EXjrsL-Il8gmp6x8w_7C-28" target="EXjrsL-Il8gmp6x8w_7C-43">
          <mxGeometry relative="1" as="geometry">
            <Array as="points">
              <mxPoint x="1462" y="1650" />
              <mxPoint x="1462" y="1710" />
              <mxPoint x="998" y="1710" />
            </Array>
          </mxGeometry>
        </mxCell>
        <mxCell id="EXjrsL-Il8gmp6x8w_7C-28" value="Se Lugar===&quot;Ásia&quot;" style="rhombus;whiteSpace=wrap;html=1;align=center;" vertex="1" parent="WIyWlLk6GJQsqaUBKTNV-1">
          <mxGeometry x="1232" y="1600" width="198" height="100" as="geometry" />
        </mxCell>
        <mxCell id="EXjrsL-Il8gmp6x8w_7C-29" style="edgeStyle=orthogonalEdgeStyle;rounded=0;orthogonalLoop=1;jettySize=auto;html=1;entryX=0.5;entryY=0;entryDx=0;entryDy=0;" edge="1" parent="WIyWlLk6GJQsqaUBKTNV-1" source="EXjrsL-Il8gmp6x8w_7C-31" target="EXjrsL-Il8gmp6x8w_7C-34">
          <mxGeometry relative="1" as="geometry" />
        </mxCell>
        <mxCell id="EXjrsL-Il8gmp6x8w_7C-30" style="edgeStyle=orthogonalEdgeStyle;rounded=0;orthogonalLoop=1;jettySize=auto;html=1;exitX=0.5;exitY=1;exitDx=0;exitDy=0;" edge="1" parent="WIyWlLk6GJQsqaUBKTNV-1" source="EXjrsL-Il8gmp6x8w_7C-37" target="EXjrsL-Il8gmp6x8w_7C-47">
          <mxGeometry relative="1" as="geometry">
            <Array as="points">
              <mxPoint x="1762" y="2040" />
              <mxPoint x="1762" y="2120" />
            </Array>
          </mxGeometry>
        </mxCell>
        <mxCell id="EXjrsL-Il8gmp6x8w_7C-31" value="Valoradultoasia;&lt;br&gt;Valorcriancaasia;" style="shape=parallelogram;perimeter=parallelogramPerimeter;whiteSpace=wrap;html=1;fixedSize=1;" vertex="1" parent="WIyWlLk6GJQsqaUBKTNV-1">
          <mxGeometry x="1688.5" y="1760" width="141" height="60" as="geometry" />
        </mxCell>
        <mxCell id="EXjrsL-Il8gmp6x8w_7C-32" value="" style="edgeStyle=orthogonalEdgeStyle;rounded=0;orthogonalLoop=1;jettySize=auto;html=1;entryX=0.5;entryY=0;entryDx=0;entryDy=0;" edge="1" parent="WIyWlLk6GJQsqaUBKTNV-1" source="EXjrsL-Il8gmp6x8w_7C-34" target="EXjrsL-Il8gmp6x8w_7C-37">
          <mxGeometry relative="1" as="geometry" />
        </mxCell>
        <mxCell id="EXjrsL-Il8gmp6x8w_7C-33" style="edgeStyle=orthogonalEdgeStyle;rounded=0;orthogonalLoop=1;jettySize=auto;html=1;" edge="1" parent="WIyWlLk6GJQsqaUBKTNV-1" source="EXjrsL-Il8gmp6x8w_7C-34">
          <mxGeometry relative="1" as="geometry">
            <mxPoint x="1592" y="1910" as="targetPoint" />
          </mxGeometry>
        </mxCell>
        <mxCell id="EXjrsL-Il8gmp6x8w_7C-34" value="Se QtdCriança&amp;gt;0" style="rhombus;whiteSpace=wrap;html=1;" vertex="1" parent="WIyWlLk6GJQsqaUBKTNV-1">
          <mxGeometry x="1693" y="1870" width="132" height="80" as="geometry" />
        </mxCell>
        <mxCell id="EXjrsL-Il8gmp6x8w_7C-35" value="" style="edgeStyle=orthogonalEdgeStyle;rounded=0;orthogonalLoop=1;jettySize=auto;html=1;" edge="1" parent="WIyWlLk6GJQsqaUBKTNV-1" source="EXjrsL-Il8gmp6x8w_7C-37" target="EXjrsL-Il8gmp6x8w_7C-38">
          <mxGeometry relative="1" as="geometry" />
        </mxCell>
        <mxCell id="EXjrsL-Il8gmp6x8w_7C-36" value="" style="edgeStyle=orthogonalEdgeStyle;rounded=0;orthogonalLoop=1;jettySize=auto;html=1;" edge="1" parent="WIyWlLk6GJQsqaUBKTNV-1" source="EXjrsL-Il8gmp6x8w_7C-37" target="EXjrsL-Il8gmp6x8w_7C-39">
          <mxGeometry relative="1" as="geometry" />
        </mxCell>
        <mxCell id="EXjrsL-Il8gmp6x8w_7C-37" value="Se EstadoCrianca===&quot;Econômico&quot;" style="rhombus;whiteSpace=wrap;html=1;" vertex="1" parent="WIyWlLk6GJQsqaUBKTNV-1">
          <mxGeometry x="1872" y="1960" width="256" height="80" as="geometry" />
        </mxCell>
        <mxCell id="EXjrsL-Il8gmp6x8w_7C-38" value="Valorcriancaasia=Qtdcrianca*Asiaeco" style="shape=parallelogram;perimeter=parallelogramPerimeter;whiteSpace=wrap;html=1;fixedSize=1;" vertex="1" parent="WIyWlLk6GJQsqaUBKTNV-1">
          <mxGeometry x="2182" y="1970" width="300" height="60" as="geometry" />
        </mxCell>
        <mxCell id="EXjrsL-Il8gmp6x8w_7C-39" value="Valorcriancaasia=Qtdcrianca*Asiaexecu" style="shape=parallelogram;perimeter=parallelogramPerimeter;whiteSpace=wrap;html=1;fixedSize=1;" vertex="1" parent="WIyWlLk6GJQsqaUBKTNV-1">
          <mxGeometry x="1412" y="1970" width="312" height="60" as="geometry" />
        </mxCell>
        <mxCell id="EXjrsL-Il8gmp6x8w_7C-40" value="Valoradultoasia,&lt;br&gt;Qtdpessoas,&lt;br&gt;Lugar" style="shape=display;whiteSpace=wrap;html=1;" vertex="1" parent="WIyWlLk6GJQsqaUBKTNV-1">
          <mxGeometry x="1422" y="1877.5" width="168.5" height="65" as="geometry" />
        </mxCell>
        <mxCell id="EXjrsL-Il8gmp6x8w_7C-41" value="" style="edgeStyle=orthogonalEdgeStyle;rounded=0;orthogonalLoop=1;jettySize=auto;html=1;" edge="1" parent="WIyWlLk6GJQsqaUBKTNV-1" source="EXjrsL-Il8gmp6x8w_7C-43" target="EXjrsL-Il8gmp6x8w_7C-44">
          <mxGeometry relative="1" as="geometry" />
        </mxCell>
        <mxCell id="EXjrsL-Il8gmp6x8w_7C-42" value="" style="edgeStyle=orthogonalEdgeStyle;rounded=0;orthogonalLoop=1;jettySize=auto;html=1;" edge="1" parent="WIyWlLk6GJQsqaUBKTNV-1" source="EXjrsL-Il8gmp6x8w_7C-43" target="EXjrsL-Il8gmp6x8w_7C-45">
          <mxGeometry relative="1" as="geometry" />
        </mxCell>
        <mxCell id="EXjrsL-Il8gmp6x8w_7C-43" value="Se EstadoAdulto===Economica" style="rhombus;whiteSpace=wrap;html=1;" vertex="1" parent="WIyWlLk6GJQsqaUBKTNV-1">
          <mxGeometry x="873" y="1730" width="250" height="100" as="geometry" />
        </mxCell>
        <mxCell id="EXjrsL-Il8gmp6x8w_7C-44" value="Valoradultoasia=Qtdadulto*Asiaeco" style="shape=parallelogram;perimeter=parallelogramPerimeter;whiteSpace=wrap;html=1;fixedSize=1;" vertex="1" parent="WIyWlLk6GJQsqaUBKTNV-1">
          <mxGeometry x="1153" y="1750" width="270" height="60" as="geometry" />
        </mxCell>
        <mxCell id="EXjrsL-Il8gmp6x8w_7C-45" value="Valoradultoasia=Qtdadulto*Asiaexecu" style="shape=parallelogram;perimeter=parallelogramPerimeter;whiteSpace=wrap;html=1;fixedSize=1;" vertex="1" parent="WIyWlLk6GJQsqaUBKTNV-1">
          <mxGeometry x="483" y="1750" width="295" height="60" as="geometry" />
        </mxCell>
        <mxCell id="EXjrsL-Il8gmp6x8w_7C-46" style="edgeStyle=orthogonalEdgeStyle;rounded=0;orthogonalLoop=1;jettySize=auto;html=1;entryX=1;entryY=0.5;entryDx=0;entryDy=0;entryPerimeter=0;" edge="1" parent="WIyWlLk6GJQsqaUBKTNV-1" source="EXjrsL-Il8gmp6x8w_7C-47" target="EXjrsL-Il8gmp6x8w_7C-48">
          <mxGeometry relative="1" as="geometry">
            <mxPoint x="1232" y="2115" as="targetPoint" />
          </mxGeometry>
        </mxCell>
        <mxCell id="EXjrsL-Il8gmp6x8w_7C-47" value="Valortotal=Valoradultoasia+Valorcriancaasia" style="shape=parallelogram;perimeter=parallelogramPerimeter;whiteSpace=wrap;html=1;fixedSize=1;" vertex="1" parent="WIyWlLk6GJQsqaUBKTNV-1">
          <mxGeometry x="1322" y="2090" width="300" height="50" as="geometry" />
        </mxCell>
        <mxCell id="EXjrsL-Il8gmp6x8w_7C-48" value="Valortotal,&lt;br&gt;Qtdpessoas,&lt;br&gt;Lugar" style="shape=display;whiteSpace=wrap;html=1;" vertex="1" parent="WIyWlLk6GJQsqaUBKTNV-1">
          <mxGeometry x="1082" y="2082.5" width="140" height="65" as="geometry" />
        </mxCell>
        <mxCell id="EXjrsL-Il8gmp6x8w_7C-50" value="" style="edgeStyle=orthogonalEdgeStyle;rounded=0;orthogonalLoop=1;jettySize=auto;html=1;" edge="1" parent="WIyWlLk6GJQsqaUBKTNV-1" source="EXjrsL-Il8gmp6x8w_7C-52" target="EXjrsL-Il8gmp6x8w_7C-55">
          <mxGeometry relative="1" as="geometry">
            <Array as="points">
              <mxPoint x="-484" y="1720" />
            </Array>
          </mxGeometry>
        </mxCell>
        <mxCell id="EXjrsL-Il8gmp6x8w_7C-51" style="edgeStyle=orthogonalEdgeStyle;rounded=0;orthogonalLoop=1;jettySize=auto;html=1;" edge="1" parent="WIyWlLk6GJQsqaUBKTNV-1" source="EXjrsL-Il8gmp6x8w_7C-52" target="EXjrsL-Il8gmp6x8w_7C-67">
          <mxGeometry relative="1" as="geometry">
            <Array as="points">
              <mxPoint x="-781" y="1720" />
              <mxPoint x="-781" y="1780" />
              <mxPoint x="-1245" y="1780" />
            </Array>
          </mxGeometry>
        </mxCell>
        <mxCell id="EXjrsL-Il8gmp6x8w_7C-52" value="Se Lugar===&quot;Europa&quot;" style="rhombus;whiteSpace=wrap;html=1;align=center;" vertex="1" parent="WIyWlLk6GJQsqaUBKTNV-1">
          <mxGeometry x="-1011" y="1670" width="198" height="100" as="geometry" />
        </mxCell>
        <mxCell id="EXjrsL-Il8gmp6x8w_7C-53" style="edgeStyle=orthogonalEdgeStyle;rounded=0;orthogonalLoop=1;jettySize=auto;html=1;entryX=0.5;entryY=0;entryDx=0;entryDy=0;" edge="1" parent="WIyWlLk6GJQsqaUBKTNV-1" source="EXjrsL-Il8gmp6x8w_7C-55" target="EXjrsL-Il8gmp6x8w_7C-58">
          <mxGeometry relative="1" as="geometry" />
        </mxCell>
        <mxCell id="EXjrsL-Il8gmp6x8w_7C-54" style="edgeStyle=orthogonalEdgeStyle;rounded=0;orthogonalLoop=1;jettySize=auto;html=1;exitX=0.5;exitY=1;exitDx=0;exitDy=0;" edge="1" parent="WIyWlLk6GJQsqaUBKTNV-1" source="EXjrsL-Il8gmp6x8w_7C-61" target="EXjrsL-Il8gmp6x8w_7C-71">
          <mxGeometry relative="1" as="geometry">
            <Array as="points">
              <mxPoint x="-481" y="2110" />
              <mxPoint x="-481" y="2190" />
            </Array>
          </mxGeometry>
        </mxCell>
        <mxCell id="EXjrsL-Il8gmp6x8w_7C-55" value="Valoradultoeuropa;&lt;br&gt;Valorcriancaeuropa;" style="shape=parallelogram;perimeter=parallelogramPerimeter;whiteSpace=wrap;html=1;fixedSize=1;" vertex="1" parent="WIyWlLk6GJQsqaUBKTNV-1">
          <mxGeometry x="-554.5" y="1830" width="141" height="60" as="geometry" />
        </mxCell>
        <mxCell id="EXjrsL-Il8gmp6x8w_7C-56" value="" style="edgeStyle=orthogonalEdgeStyle;rounded=0;orthogonalLoop=1;jettySize=auto;html=1;entryX=0.5;entryY=0;entryDx=0;entryDy=0;" edge="1" parent="WIyWlLk6GJQsqaUBKTNV-1" source="EXjrsL-Il8gmp6x8w_7C-58" target="EXjrsL-Il8gmp6x8w_7C-61">
          <mxGeometry relative="1" as="geometry" />
        </mxCell>
        <mxCell id="EXjrsL-Il8gmp6x8w_7C-57" style="edgeStyle=orthogonalEdgeStyle;rounded=0;orthogonalLoop=1;jettySize=auto;html=1;" edge="1" parent="WIyWlLk6GJQsqaUBKTNV-1" source="EXjrsL-Il8gmp6x8w_7C-58">
          <mxGeometry relative="1" as="geometry">
            <mxPoint x="-651" y="1980" as="targetPoint" />
          </mxGeometry>
        </mxCell>
        <mxCell id="EXjrsL-Il8gmp6x8w_7C-58" value="Se QtdCriança&amp;gt;0" style="rhombus;whiteSpace=wrap;html=1;" vertex="1" parent="WIyWlLk6GJQsqaUBKTNV-1">
          <mxGeometry x="-550" y="1940" width="132" height="80" as="geometry" />
        </mxCell>
        <mxCell id="EXjrsL-Il8gmp6x8w_7C-59" value="" style="edgeStyle=orthogonalEdgeStyle;rounded=0;orthogonalLoop=1;jettySize=auto;html=1;" edge="1" parent="WIyWlLk6GJQsqaUBKTNV-1" source="EXjrsL-Il8gmp6x8w_7C-61" target="EXjrsL-Il8gmp6x8w_7C-62">
          <mxGeometry relative="1" as="geometry" />
        </mxCell>
        <mxCell id="EXjrsL-Il8gmp6x8w_7C-60" value="" style="edgeStyle=orthogonalEdgeStyle;rounded=0;orthogonalLoop=1;jettySize=auto;html=1;" edge="1" parent="WIyWlLk6GJQsqaUBKTNV-1" source="EXjrsL-Il8gmp6x8w_7C-61" target="EXjrsL-Il8gmp6x8w_7C-63">
          <mxGeometry relative="1" as="geometry" />
        </mxCell>
        <mxCell id="EXjrsL-Il8gmp6x8w_7C-61" value="Se EstadoCrianca===&quot;Econômico&quot;" style="rhombus;whiteSpace=wrap;html=1;" vertex="1" parent="WIyWlLk6GJQsqaUBKTNV-1">
          <mxGeometry x="-371" y="2030" width="256" height="80" as="geometry" />
        </mxCell>
        <mxCell id="EXjrsL-Il8gmp6x8w_7C-62" value="Valorcriancaeuropa=Qtdcrianca*Europaeco" style="shape=parallelogram;perimeter=parallelogramPerimeter;whiteSpace=wrap;html=1;fixedSize=1;" vertex="1" parent="WIyWlLk6GJQsqaUBKTNV-1">
          <mxGeometry x="-61" y="2040" width="300" height="60" as="geometry" />
        </mxCell>
        <mxCell id="EXjrsL-Il8gmp6x8w_7C-63" value="Valorcriancaeuropa=Qtdcrianca*Europaexecu" style="shape=parallelogram;perimeter=parallelogramPerimeter;whiteSpace=wrap;html=1;fixedSize=1;" vertex="1" parent="WIyWlLk6GJQsqaUBKTNV-1">
          <mxGeometry x="-831" y="2040" width="312" height="60" as="geometry" />
        </mxCell>
        <mxCell id="EXjrsL-Il8gmp6x8w_7C-64" value="Valoradultoeuropa,&lt;br&gt;Qtdpessoas,&lt;br&gt;Lugar" style="shape=display;whiteSpace=wrap;html=1;" vertex="1" parent="WIyWlLk6GJQsqaUBKTNV-1">
          <mxGeometry x="-821" y="1947.5" width="168.5" height="65" as="geometry" />
        </mxCell>
        <mxCell id="EXjrsL-Il8gmp6x8w_7C-65" value="" style="edgeStyle=orthogonalEdgeStyle;rounded=0;orthogonalLoop=1;jettySize=auto;html=1;" edge="1" parent="WIyWlLk6GJQsqaUBKTNV-1" source="EXjrsL-Il8gmp6x8w_7C-67" target="EXjrsL-Il8gmp6x8w_7C-68">
          <mxGeometry relative="1" as="geometry" />
        </mxCell>
        <mxCell id="EXjrsL-Il8gmp6x8w_7C-66" value="" style="edgeStyle=orthogonalEdgeStyle;rounded=0;orthogonalLoop=1;jettySize=auto;html=1;" edge="1" parent="WIyWlLk6GJQsqaUBKTNV-1" source="EXjrsL-Il8gmp6x8w_7C-67" target="EXjrsL-Il8gmp6x8w_7C-69">
          <mxGeometry relative="1" as="geometry" />
        </mxCell>
        <mxCell id="EXjrsL-Il8gmp6x8w_7C-67" value="Se EstadoAdulto===Economica" style="rhombus;whiteSpace=wrap;html=1;" vertex="1" parent="WIyWlLk6GJQsqaUBKTNV-1">
          <mxGeometry x="-1370" y="1800" width="250" height="100" as="geometry" />
        </mxCell>
        <mxCell id="EXjrsL-Il8gmp6x8w_7C-68" value="Valoradultoeuropa=Qtdadulto*Europaeco" style="shape=parallelogram;perimeter=parallelogramPerimeter;whiteSpace=wrap;html=1;fixedSize=1;" vertex="1" parent="WIyWlLk6GJQsqaUBKTNV-1">
          <mxGeometry x="-1090" y="1820" width="270" height="60" as="geometry" />
        </mxCell>
        <mxCell id="EXjrsL-Il8gmp6x8w_7C-69" value="Valoradultoeuropa=Qtdadulto*Europaexecu" style="shape=parallelogram;perimeter=parallelogramPerimeter;whiteSpace=wrap;html=1;fixedSize=1;" vertex="1" parent="WIyWlLk6GJQsqaUBKTNV-1">
          <mxGeometry x="-1760" y="1820" width="295" height="60" as="geometry" />
        </mxCell>
        <mxCell id="EXjrsL-Il8gmp6x8w_7C-70" style="edgeStyle=orthogonalEdgeStyle;rounded=0;orthogonalLoop=1;jettySize=auto;html=1;entryX=1;entryY=0.5;entryDx=0;entryDy=0;entryPerimeter=0;" edge="1" parent="WIyWlLk6GJQsqaUBKTNV-1" source="EXjrsL-Il8gmp6x8w_7C-71" target="EXjrsL-Il8gmp6x8w_7C-72">
          <mxGeometry relative="1" as="geometry">
            <mxPoint x="-1011" y="2185" as="targetPoint" />
          </mxGeometry>
        </mxCell>
        <mxCell id="EXjrsL-Il8gmp6x8w_7C-71" value="Valortotal=Valoradultoeuropa+Valorcriancaeuropa" style="shape=parallelogram;perimeter=parallelogramPerimeter;whiteSpace=wrap;html=1;fixedSize=1;" vertex="1" parent="WIyWlLk6GJQsqaUBKTNV-1">
          <mxGeometry x="-921" y="2160" width="300" height="50" as="geometry" />
        </mxCell>
        <mxCell id="EXjrsL-Il8gmp6x8w_7C-72" value="Valortotal,&lt;br&gt;Qtdpessoas,&lt;br&gt;Lugar" style="shape=display;whiteSpace=wrap;html=1;" vertex="1" parent="WIyWlLk6GJQsqaUBKTNV-1">
          <mxGeometry x="-1161" y="2152.5" width="140" height="65" as="geometry" />
        </mxCell>
        <mxCell id="EXjrsL-Il8gmp6x8w_7C-74" value="" style="edgeStyle=orthogonalEdgeStyle;rounded=0;orthogonalLoop=1;jettySize=auto;html=1;" edge="1" parent="WIyWlLk6GJQsqaUBKTNV-1" source="EXjrsL-Il8gmp6x8w_7C-76" target="EXjrsL-Il8gmp6x8w_7C-79">
          <mxGeometry relative="1" as="geometry">
            <Array as="points">
              <mxPoint x="3516" y="2360" />
            </Array>
          </mxGeometry>
        </mxCell>
        <mxCell id="EXjrsL-Il8gmp6x8w_7C-75" style="edgeStyle=orthogonalEdgeStyle;rounded=0;orthogonalLoop=1;jettySize=auto;html=1;" edge="1" parent="WIyWlLk6GJQsqaUBKTNV-1" source="EXjrsL-Il8gmp6x8w_7C-76" target="EXjrsL-Il8gmp6x8w_7C-91">
          <mxGeometry relative="1" as="geometry">
            <Array as="points">
              <mxPoint x="3219" y="2360" />
              <mxPoint x="3219" y="2420" />
              <mxPoint x="2755" y="2420" />
            </Array>
          </mxGeometry>
        </mxCell>
        <mxCell id="EXjrsL-Il8gmp6x8w_7C-76" value="Se Lugar===&quot;Africa&quot;" style="rhombus;whiteSpace=wrap;html=1;align=center;" vertex="1" parent="WIyWlLk6GJQsqaUBKTNV-1">
          <mxGeometry x="2989" y="2310" width="198" height="100" as="geometry" />
        </mxCell>
        <mxCell id="EXjrsL-Il8gmp6x8w_7C-77" style="edgeStyle=orthogonalEdgeStyle;rounded=0;orthogonalLoop=1;jettySize=auto;html=1;entryX=0.5;entryY=0;entryDx=0;entryDy=0;" edge="1" parent="WIyWlLk6GJQsqaUBKTNV-1" source="EXjrsL-Il8gmp6x8w_7C-79" target="EXjrsL-Il8gmp6x8w_7C-82">
          <mxGeometry relative="1" as="geometry" />
        </mxCell>
        <mxCell id="EXjrsL-Il8gmp6x8w_7C-78" style="edgeStyle=orthogonalEdgeStyle;rounded=0;orthogonalLoop=1;jettySize=auto;html=1;exitX=0.5;exitY=1;exitDx=0;exitDy=0;" edge="1" parent="WIyWlLk6GJQsqaUBKTNV-1" source="EXjrsL-Il8gmp6x8w_7C-85" target="EXjrsL-Il8gmp6x8w_7C-95">
          <mxGeometry relative="1" as="geometry">
            <Array as="points">
              <mxPoint x="3519" y="2750" />
              <mxPoint x="3519" y="2830" />
            </Array>
          </mxGeometry>
        </mxCell>
        <mxCell id="EXjrsL-Il8gmp6x8w_7C-79" value="Valoradultoafrica;&lt;br&gt;Valorcriancaafrica;" style="shape=parallelogram;perimeter=parallelogramPerimeter;whiteSpace=wrap;html=1;fixedSize=1;" vertex="1" parent="WIyWlLk6GJQsqaUBKTNV-1">
          <mxGeometry x="3445.5" y="2470" width="141" height="60" as="geometry" />
        </mxCell>
        <mxCell id="EXjrsL-Il8gmp6x8w_7C-80" value="" style="edgeStyle=orthogonalEdgeStyle;rounded=0;orthogonalLoop=1;jettySize=auto;html=1;entryX=0.5;entryY=0;entryDx=0;entryDy=0;" edge="1" parent="WIyWlLk6GJQsqaUBKTNV-1" source="EXjrsL-Il8gmp6x8w_7C-82" target="EXjrsL-Il8gmp6x8w_7C-85">
          <mxGeometry relative="1" as="geometry" />
        </mxCell>
        <mxCell id="EXjrsL-Il8gmp6x8w_7C-81" style="edgeStyle=orthogonalEdgeStyle;rounded=0;orthogonalLoop=1;jettySize=auto;html=1;" edge="1" parent="WIyWlLk6GJQsqaUBKTNV-1" source="EXjrsL-Il8gmp6x8w_7C-82">
          <mxGeometry relative="1" as="geometry">
            <mxPoint x="3349" y="2620" as="targetPoint" />
          </mxGeometry>
        </mxCell>
        <mxCell id="EXjrsL-Il8gmp6x8w_7C-82" value="Se QtdCriança&amp;gt;0" style="rhombus;whiteSpace=wrap;html=1;" vertex="1" parent="WIyWlLk6GJQsqaUBKTNV-1">
          <mxGeometry x="3450" y="2580" width="132" height="80" as="geometry" />
        </mxCell>
        <mxCell id="EXjrsL-Il8gmp6x8w_7C-83" value="" style="edgeStyle=orthogonalEdgeStyle;rounded=0;orthogonalLoop=1;jettySize=auto;html=1;" edge="1" parent="WIyWlLk6GJQsqaUBKTNV-1" source="EXjrsL-Il8gmp6x8w_7C-85" target="EXjrsL-Il8gmp6x8w_7C-86">
          <mxGeometry relative="1" as="geometry" />
        </mxCell>
        <mxCell id="EXjrsL-Il8gmp6x8w_7C-84" value="" style="edgeStyle=orthogonalEdgeStyle;rounded=0;orthogonalLoop=1;jettySize=auto;html=1;" edge="1" parent="WIyWlLk6GJQsqaUBKTNV-1" source="EXjrsL-Il8gmp6x8w_7C-85" target="EXjrsL-Il8gmp6x8w_7C-87">
          <mxGeometry relative="1" as="geometry" />
        </mxCell>
        <mxCell id="EXjrsL-Il8gmp6x8w_7C-85" value="Se EstadoCrianca===&quot;Econômico&quot;" style="rhombus;whiteSpace=wrap;html=1;" vertex="1" parent="WIyWlLk6GJQsqaUBKTNV-1">
          <mxGeometry x="3629" y="2670" width="256" height="80" as="geometry" />
        </mxCell>
        <mxCell id="EXjrsL-Il8gmp6x8w_7C-86" value="Valorcriancaafrica=Qtdcrianca*Africaeco" style="shape=parallelogram;perimeter=parallelogramPerimeter;whiteSpace=wrap;html=1;fixedSize=1;" vertex="1" parent="WIyWlLk6GJQsqaUBKTNV-1">
          <mxGeometry x="3939" y="2680" width="300" height="60" as="geometry" />
        </mxCell>
        <mxCell id="EXjrsL-Il8gmp6x8w_7C-87" value="Valorcriancaafrica=Qtdcrianca*Africaexecu" style="shape=parallelogram;perimeter=parallelogramPerimeter;whiteSpace=wrap;html=1;fixedSize=1;" vertex="1" parent="WIyWlLk6GJQsqaUBKTNV-1">
          <mxGeometry x="3169" y="2680" width="312" height="60" as="geometry" />
        </mxCell>
        <mxCell id="EXjrsL-Il8gmp6x8w_7C-88" value="Valoradultoafrica,&lt;br&gt;Qtdpessoas,&lt;br&gt;Lugar" style="shape=display;whiteSpace=wrap;html=1;" vertex="1" parent="WIyWlLk6GJQsqaUBKTNV-1">
          <mxGeometry x="3179" y="2587.5" width="168.5" height="65" as="geometry" />
        </mxCell>
        <mxCell id="EXjrsL-Il8gmp6x8w_7C-89" value="" style="edgeStyle=orthogonalEdgeStyle;rounded=0;orthogonalLoop=1;jettySize=auto;html=1;" edge="1" parent="WIyWlLk6GJQsqaUBKTNV-1" source="EXjrsL-Il8gmp6x8w_7C-91" target="EXjrsL-Il8gmp6x8w_7C-92">
          <mxGeometry relative="1" as="geometry" />
        </mxCell>
        <mxCell id="EXjrsL-Il8gmp6x8w_7C-90" value="" style="edgeStyle=orthogonalEdgeStyle;rounded=0;orthogonalLoop=1;jettySize=auto;html=1;" edge="1" parent="WIyWlLk6GJQsqaUBKTNV-1" source="EXjrsL-Il8gmp6x8w_7C-91" target="EXjrsL-Il8gmp6x8w_7C-93">
          <mxGeometry relative="1" as="geometry" />
        </mxCell>
        <mxCell id="EXjrsL-Il8gmp6x8w_7C-91" value="Se EstadoAdulto===Economica" style="rhombus;whiteSpace=wrap;html=1;" vertex="1" parent="WIyWlLk6GJQsqaUBKTNV-1">
          <mxGeometry x="2630" y="2440" width="250" height="100" as="geometry" />
        </mxCell>
        <mxCell id="EXjrsL-Il8gmp6x8w_7C-92" value="Valoradultoafrica=Qtdadulto*Africaeco" style="shape=parallelogram;perimeter=parallelogramPerimeter;whiteSpace=wrap;html=1;fixedSize=1;" vertex="1" parent="WIyWlLk6GJQsqaUBKTNV-1">
          <mxGeometry x="2910" y="2460" width="270" height="60" as="geometry" />
        </mxCell>
        <mxCell id="EXjrsL-Il8gmp6x8w_7C-93" value="Valoradultoafrica=Qtdadulto*Africaexecu" style="shape=parallelogram;perimeter=parallelogramPerimeter;whiteSpace=wrap;html=1;fixedSize=1;" vertex="1" parent="WIyWlLk6GJQsqaUBKTNV-1">
          <mxGeometry x="2240" y="2460" width="295" height="60" as="geometry" />
        </mxCell>
        <mxCell id="EXjrsL-Il8gmp6x8w_7C-94" style="edgeStyle=orthogonalEdgeStyle;rounded=0;orthogonalLoop=1;jettySize=auto;html=1;entryX=1;entryY=0.5;entryDx=0;entryDy=0;entryPerimeter=0;" edge="1" parent="WIyWlLk6GJQsqaUBKTNV-1" source="EXjrsL-Il8gmp6x8w_7C-95" target="EXjrsL-Il8gmp6x8w_7C-96">
          <mxGeometry relative="1" as="geometry">
            <mxPoint x="2989" y="2825" as="targetPoint" />
          </mxGeometry>
        </mxCell>
        <mxCell id="EXjrsL-Il8gmp6x8w_7C-95" value="Valortotal=Valoradultoafrica+Valorcriancaafrica" style="shape=parallelogram;perimeter=parallelogramPerimeter;whiteSpace=wrap;html=1;fixedSize=1;" vertex="1" parent="WIyWlLk6GJQsqaUBKTNV-1">
          <mxGeometry x="3079" y="2800" width="300" height="50" as="geometry" />
        </mxCell>
        <mxCell id="EXjrsL-Il8gmp6x8w_7C-96" value="Valortotal,&lt;br&gt;Qtdpessoas,&lt;br&gt;Lugar" style="shape=display;whiteSpace=wrap;html=1;" vertex="1" parent="WIyWlLk6GJQsqaUBKTNV-1">
          <mxGeometry x="2839" y="2792.5" width="140" height="65" as="geometry" />
        </mxCell>
      </root>
    </mxGraphModel>
  </diagram>
</mxfile>
